<svg width="24" height="24" viewBox="0 0 24 24" fill="none" xmlns="http://www.w3.org/2000/svg">
<path d="M17.49 9.60001L5.6 16.77C4.9 17.19 4 16.69 4 15.87V7.87001C4 4.38001 7.77 2.20001 10.8 3.94001L15.39 6.58001L17.48 7.78001C18.17 8.19001 18.18 9.19001 17.49 9.60001Z" fill="#292D32"/>
<path d="M18.09 15.46L14.04 17.8L9.99999 20.13C8.54999 20.96 6.90999 20.79 5.71999 19.95C5.13999 19.55 5.20999 18.66 5.81999 18.3L18.53 10.68C19.13 10.32 19.92 10.66 20.03 11.35C20.28 12.9 19.64 14.57 18.09 15.46Z" fill="#292D32"/>
</svg>
